<?xml version="1.0" encoding="utf-8"?>
<!-- Generator: Adobe Illustrator 25.2.1, SVG Export Plug-In . SVG Version: 6.00 Build 0)  -->
<svg version="1.1" id="Layer_1" xmlns="http://www.w3.org/2000/svg" xmlns:xlink="http://www.w3.org/1999/xlink" x="0px" y="0px"
	 viewBox="0 0 2154.3 2267.7" style="enable-background:new 0 0 2154.3 2267.7;" xml:space="preserve">
<style type="text/css">
	.st0{opacity:0.5;fill:#E0E0E0;enable-background:new    ;}
	.st1{fill:#233166;}
	.st2{fill:#FFFFFF;}
	.st3{fill:#2B2B2B;}
	.st4{fill:#4C4C4C;}
	.st5{opacity:0.7;fill:#AFAFAF;enable-background:new    ;}
	.st6{fill:#FFAA68;}
	.st7{opacity:0.3;fill:#FFAA68;enable-background:new    ;}
	.st8{fill:#3C1255;}
	.st9{fill:#A1246A;}
	.st10{fill:#3C2EC5;}
	.st11{fill:#4F30C5;}
	.st12{fill:#C165A2;}
	.st13{opacity:0.5;fill:#FFFFFF;enable-background:new    ;}
	.st14{fill:#C9C9C9;}
	.st15{fill:#FF964B;}
	.st16{opacity:0.5;fill:#FFAA68;enable-background:new    ;}
	.st17{fill:#F6D4AF;}
	.st18{fill:#FFE9D5;}
	.st19{opacity:0.5;fill:#C165A2;enable-background:new    ;}
	.st20{opacity:0.3;fill:#2B2B2B;enable-background:new    ;}
	.st21{opacity:0.5;fill:#233166;enable-background:new    ;}
	.st22{fill:#FFCCC9;}
	.st23{fill:#D2E7F7;}
	.st24{fill:#CB3D3C;}
	.st25{fill:#BACEF0;}
	.st26{enable-background:new    ;}
	.st27{fill:#D7E3EE;}
	.st28{fill:#DC513E;}
	.st29{fill:#E3EBF3;}
	.st30{fill:#F1BAD1;}
	.st31{fill:url(#SVGID_1_);}
	.st32{fill:#CD518A;}
	.st33{fill:#EBA3B2;}
	.st34{fill:#189FAC;}
	.st35{opacity:0.5;fill:#189FAC;enable-background:new    ;}
	.st36{opacity:0.5;}
	.st37{clip-path:url(#SVGID_3_);}
	.st38{clip-path:url(#SVGID_5_);}
	.st39{clip-path:url(#SVGID_7_);}
	.st40{clip-path:url(#SVGID_9_);}
	.st41{opacity:0.3;fill:#4F30C5;enable-background:new    ;}
	.st42{opacity:0.3;fill:#FFFFFF;enable-background:new    ;}
</style>
<path class="st0" d="M760.4,677.3c-56.4-27.9-110.7-61.5-176.9-69.8c-110.5-13.8-215.9,17-291.9,101.6
	c-34.1,37.9-53.9,86.5-56,137.5c-2,51,12.3,112.6,77.2,156c130.5,87,208.8,134.9,161,300.2s87,213.2,87,213.2s139.2,4.4,161,121.8
	c21.8,117.5-26.1,343.7,265.4,348.1s604.7-726.6,395.9-1174.7c0,0-78.3-169.7-295.8-121.8c-70.6,15.5-154.5,38-227.4,24.3
	C824.3,706.9,792,693,760.4,677.3z"/>
<path class="st1" d="M2134,859.3c0,0-5.9,163.1-162.7,371.1c-10.5,14-30.7,40.3-66.4,53.9c-14.6,5.6-30.4,8.6-47,8.8
	c-56.7,0.6-90.5-43.7-142.3-52.5c-0.5-0.1-0.9-0.1-1.4-0.2c-41.1-6.4-79.3,21.3-108.3,47c-97.6,86.6-180.1,30.6-229.2-5.5
	s-90.6-48-137.6-13.6c-6.2,4.5-12.2,7.8-18.2,10.1c-39.7,15.2-75.4-14.2-111.3-31.6c-41.3-19.9-81.8,3.4-81.8,3.4l-35.5,17l-21-38.7
	c0,0,73.7-29.8,84.3-103c11.2-76.7,33.7-95.7,103.1-124.9c114.8-48.5,37.4-157.8,89.3-240.4c35.2-56.2,135.8-40,189.3-63.8
	c84.4-37.6,10.1-125.7,86.5-176.4c31.1-20.7,56.4-8.2,112.1-20.3c113.4-24.5,126.4-131.1,192.6-142.4
	C1939.1,338.6,2143.6,594.8,2134,859.3z"/>
<path class="st2" d="M1181.2,2006.2c-26.8-1.3-53.9,4.4-76.6,19.1c-5.5,3.6-21.1,10.6-40.4,17.5c-51.8,18.5-130.8,36.5-117.9-13.5
	c18.7-71.7,103-498.9,109-533.3c6.7-38,3.2-54.5-9.3-90.4c-9.9-28.7-24.2-52.7-14.9-84.2c13.8-46.4,62.5-66.8,99.1-65.1
	c53.2,2.6,83,19.9,60.2,104.3c-2.7,10-6.1,21.3-9.5,33.1c-6.7,23.5-13.3,48.9-14,70.4c-0.5,14.3-4.7,38.5,4.5,60.9
	c20.4,49.8,38.5,103.2,39.1,157.5l0.3,0.1c-3.1,65.2,25.6,240.5,37.9,311.9C1255.2,2031.1,1196.5,2006.9,1181.2,2006.2z"/>
<g>
	<path class="st3" d="M231.5,1120.1c1.1-3.6,4.4-6,8.1-6h80v-3.3c0-1.9-1.5-3.4-3.4-3.4h-48.3c-1.2,0-2.3-0.5-3.1-1.4l-5.7-6.5
		c-0.8-0.9-1.9-1.4-3.1-1.4h-36.1c-1.9,0-3.4,1.5-3.4,3.4v60.3L231.5,1120.1z"/>
</g>
<path class="st4" d="M219.5,1178.4c-0.1,0-0.2-0.1-0.3-0.2s-0.1-0.2-0.1-0.3l20.2-55.4v-0.1c0-0.2,0.2-0.3,0.4-0.3h89
	c0.1,0,0.2,0.3,0.3,0.8l-20.1,55v0.1c0,0.2-0.2,0.3-0.4,0.3L219.5,1178.4L219.5,1178.4z"/>
<g>
	<polygon class="st3" points="417.9,1147.9 405.7,1133.3 393.5,1147.9 393.5,1111 417.9,1111 	"/>
	<path class="st3" d="M565.5,1329.5H380.4c-8.1,0-14.7-6.6-14.7-14.7v-191c0-8.1,6.6-14.7,14.7-14.7h185.2c8.1,0,14.7,6.6,14.7,14.7
		v191C580.2,1323,573.6,1329.5,565.5,1329.5z M380.4,1113.1c-5.9,0-10.7,4.8-10.7,10.7v191c0,5.9,4.8,10.7,10.7,10.7h185.2
		c5.9,0,10.7-4.8,10.7-10.7v-191c0-5.9-4.8-10.7-10.7-10.7H380.4z"/>
	<g>
		<rect x="392.6" y="1170.2" class="st3" width="155.9" height="4.3"/>
		<rect x="392.6" y="1189.7" class="st3" width="155.9" height="4.3"/>
		<rect x="392.6" y="1209.2" class="st3" width="155.9" height="4.3"/>
		<rect x="392.6" y="1228.7" class="st3" width="155.9" height="4.3"/>
		<rect x="392.6" y="1248.2" class="st3" width="155.9" height="4.3"/>
		<rect x="392.6" y="1267.7" class="st3" width="155.9" height="4.3"/>
	</g>
</g>
<ellipse transform="matrix(1 -8.618805e-03 8.618805e-03 1 -9.9441 2.3976)" class="st3" cx="273.2" cy="1154.9" rx="9.7" ry="9.7"/>
<path class="st3" d="M365.3,1232.8h-62.6c-17.3,0-31.4-14.1-31.4-31.4V1155h3.9v46.4c0,15.2,12.4,27.5,27.5,27.5h62.6V1232.8z"/>
<path class="st2" d="M1181.2,2006.2c-26.8-1.3-53.9,4.4-76.6,19.1c-5.5,3.6-21.1,10.6-40.4,17.5c-51.8,18.5-130.8,36.5-117.9-13.5
	c18.7-71.7,103-498.9,109-533.3c6.7-38,3.2-54.5-9.3-90.4c-9.9-28.7-24.2-52.7-14.9-84.2c13.8-46.4,62.5-66.8,99.1-65.1
	c53.2,2.6,83,19.9,60.2,104.3c-2.7,10-6.1,21.3-9.5,33.1c-6.7,23.5-13.3,48.9-14,70.4c-0.5,14.3-4.7,38.5,4.5,60.9
	c20.4,49.8,38.5,103.2,39.1,157.5l0.3,0.1c-3.1,65.2,25.6,240.5,37.9,311.9C1255.2,2031.1,1196.5,2006.9,1181.2,2006.2z"/>
<path class="st5" d="M1945.2,2108.1c0,11.6-383.2,21.1-855.9,21.1s-855.9-9.4-855.9-21.1c0-11.6,383.2-21.1,855.9-21.1
	S1945.2,2096.4,1945.2,2108.1z"/>
<path class="st6" d="M64.4,1875.1l10.6,1.8l37.7-15.7c0,0,178.4-92.8,233.9-168.3c0,0,44.4,17.9,99.8,43.3l-14.8-87l-56.7-11.6
	l-25.3-5.2c0,0-17.5-6.5-40.1,20.3c-11.3,13.3-57.4,59.4-103.2,103.1c-0.3,0.3-0.7,0.7-1,1c-45.4,43.3-90.2,84.1-99.9,88.1
	L70,1866.3L64.4,1875.1z"/>
<path class="st2" d="M112.7,1861.2c0,0,6.9,14.6,3.7,30.2l-81.9-13.6c-1.4-0.2-2.5-1.3-2.8-2.7c-0.3-1.4,0.4-2.8,1.6-3.6
	c3-1.8,7.7-2.7,14.6-0.1c1.7,0.6,3.6,0.7,5.3,0.1l16.6-5.2l2.2,5.3L112.7,1861.2z"/>
<path class="st7" d="M205.2,1756.8c37.9-17,134.5-107.4,134.5-107.4l31.9,3.2c0.6-5,1.6-10,3.2-15l-25.3-5.2c0,0-17.5-6.5-40.1,20.3
	c-11.3,13.3-57.4,59.4-103.2,103.1C205.8,1756.1,205.5,1756.5,205.2,1756.8z"/>
<path class="st8" d="M641.3,1583.9c0,0-114.6-14.3-128.5,105.4l89.1,30.6l61.7-76.7L641.3,1583.9z"/>
<path class="st1" d="M945.2,1554c-2,88.9-25,222-110.2,285.1c-25.9,23-75.5,54.4-139.7,65.8c-9.6,1.7-19.5,3-29.6,3.7
	c-3,0.2-6.1,0.4-9.2,0.5c-1.6,0.1-3.1,0.1-4.7,0.1c-1.6,0-3.1,0.1-4.7,0.1c-0.4,0-0.8,0-1.2,0c-7.1,0-14.2-0.2-21.1-0.6
	c-80.7-4.3-149.3-32-176.4-49.8c-85-59.9-76.4-156.1-76.4-156.1c0,0.1,0,0.1,0.1,0.2l0,0c3.8,17.9,16.7,32.5,34,38.5l167.1,57.8
	c0,0,134.6,43.3,151.6-81.7c1.8-13.1,3.8-23.7,7.8-34.3l0,0c6.7-17.8,18.8-35.5,44.2-64.1c4.8-5.4,8.8-10.6,12-15.6
	c9.6-14.9,12.8-28.2,12.4-39.7c0-0.4,0-0.8-0.1-1.2c0-0.6-0.1-1.1-0.1-1.7c-0.1-0.6-0.1-1.1-0.2-1.7c-0.1-0.5-0.2-1.1-0.2-1.6
	c-0.1-0.4-0.2-0.9-0.2-1.3c-0.2-1.2-0.5-2.3-0.8-3.5c21.7-69.5,19.7-137.7,21.9-167.6c0.9-12.6,1.2-21.8,8.3-32.3
	c14.8-21.8,44-27.7,66.4-20.2c7.3,2.4,14.1,5.9,20.1,10.2c19.6,13.8,32.1,36.3,32.8,61.1C950.9,1460.3,949.3,1510,945.2,1554z"/>
<path class="st9" d="M788.9,1603.6c-3.2,5-7.2,10.2-12,15.6c-25.5,28.6-37.6,46.2-44.2,64.1l0,0c-4,10.6-6,21.3-7.8,34.3
	c-17,125-151.6,81.7-151.6,81.7l-167.1-57.8c-17.3-6-30.2-20.6-34-38.5l0,0c-3.7-17.4-17-36.9-20.2-54c-1.3-6.8-0.9-13.2,2.3-19
	c72.4,5.4,157.3,31.3,232.7,55.5c5.2,2.2,10.7,2.5,16.2,1.6c8.7-1.3,15.7-6.3,21.2-13.6c8.4-10.9,13.6-27,16.9-43.6
	c-6-4.2-10.5-10.3-12.5-17.5c0,0-15.6-32.3,15-60.3c12.3-38.3,42.1-56.9,82.9-47.1c0.1,0,44.3,10.1,44.3,10.1s22.3,13.5,28.6,37.9
	c0.3,1.1,0.6,2.3,0.8,3.5c0.1,0.4,0.2,0.8,0.2,1.3c0.1,0.5,0.2,1.1,0.2,1.6c0.1,0.6,0.1,1.1,0.2,1.7c0.1,0.5,0.1,1.1,0.1,1.7
	c0,0.4,0.1,0.8,0.1,1.2C801.7,1575.3,798.5,1588.6,788.9,1603.6z"/>
<path class="st10" d="M1034.2,1662l2.1-8.1C1052.6,1673.6,1034.2,1662,1034.2,1662z"/>
<path class="st11" d="M1108.2,1249.4c-17.4,17.4-52.1,52.3-64.5,64.8l43.6,141.1l-51.1,198.7c-0.7-0.9-1.6-1.9-2.5-2.9
	c-20.7-23.6-63-51.2-43.3-114.2c12.2-38.9,89.6-48.9,16.2-175.7c-0.6-1.1-1.3-2.2-2-3.3c-20.4-34.5-43.5-80-35.4-121.1
	c5.8-29.6,32.6-50.1,44.1-77.1c1.1-2.6,2.1-5.3,2.9-8.1c0.7-2.5,1.3-5.1,1.7-7.7c4.8-31.8,27.8-38.1,43.6-28.6
	c11,6.6,24.6,0.7,27.3-0.6c0.5-0.2,1.1-0.5,1.6-0.7c1.2-0.5,2.5-0.9,3.6-1.3c25.5-8,33.3,15.3,33.3,15.3L1108.2,1249.4z"/>
<path class="st12" d="M646.9,1631.7l31,12.2c0,0-28.5-5-35.9,5L646.9,1631.7z"/>
<path class="st1" d="M818.9,2110.6c-1.1,2.6-3.6,4.3-6.4,4.3l-152.7,0.1H507c-2.8,0-5.4-1.7-6.5-4.3s-0.5-5.6,1.5-7.6
	c4.3-4.4,10.1-7.2,16.3-7.9c26.3-2.9,100.3-14.3,125.3-51.1v-24c0-3.8,2.6-6.9,6-7.9l-24.8-103.5l-12-50.1h93.6l-11,46.3
	l-25.6,107.3c3.5,1,6,4.1,6,7.9v24h0.2c24.9,36.7,99,48.1,125.3,51.1c6.2,0.7,11.9,3.5,16.2,7.9C819.5,2105,820,2108,818.9,2110.6z"
	/>
<path class="st13" d="M264.8,1469.1c0,5.1-4.1,9.2-9.2,9.2H110.8c-5.1,0-9.2-4.1-9.2-9.2v-86.6c0-5.1,4.1-9.2,9.2-9.2h144.7
	c5.1,0,9.2,4.1,9.2,9.2L264.8,1469.1L264.8,1469.1z"/>
<path class="st14" d="M628.8,1012.5c0,5.1-4.1,9.2-9.2,9.2H474.8c-5.1,0-9.2-4.1-9.2-9.2V848.4c0-5.1,4.1-9.2,9.2-9.2h144.7
	c5.1,0,9.2,4.1,9.2,9.2L628.8,1012.5L628.8,1012.5z"/>
<path class="st15" d="M584.5,1422L547,1303.6c1.1-6.6,5.3-17.7,5.3-17.7c3.9-11.7-3-24.1-3-24.1l-10.9-23.4
	c-2.2-4.4-3.7-2.6-3.7-2.6c-4.1,4.7,2,15.9,2,15.9l2.7,11.3c-6.1-3.5-9.2,1.3-9.2,1.3c-5.5-2.1-8.6,2.7-8.6,2.7
	c-9.4,0.3-3.5,15.5-3.5,15.5l1.2,6.4c1.4,6.3,6.6,12.4,10.6,16.6l22.3,131.6c1.3,7.9,4.9,15.2,10.3,21l85.9,93l24.3-60.6L584.5,1422
	z"/>
<path class="st9" d="M716.5,1505.9l-117.4-84c0,0-39.8,49.5-12.3,112.4c3.3,7.7,9.9,13.5,18,15.9l51.4,15.1L716.5,1505.9z"/>
<path class="st12" d="M788.9,1603.6c-3.2,5-7.2,10.2-12,15.6c-25.5,28.6-37.6,46.2-44.2,64.1c-1.4-25.3,22.4-51.4,32.7-68.7
	c11.3-18.9,15.1-55.2,15.1-55.2L788.9,1603.6z"/>
<path class="st6" d="M858.3,1637.8c0,0,15,70.2-12.9,109.6l-46.2-86.6L858.3,1637.8z"/>
<path class="st8" d="M745.3,1502.2l-14.9,3.7c-57.5-31.2-29.9-62.6-18.7-111.2c10-43.5,18.6-31.5,36-41c22-12,52.1-0.6,70.7,16.3
	c18.5,16.9,25.1,41.8,14.4,66.7c-8.6,20.1,1.7,39.9-19.8,69.5c-4.7,6.5-12,9.7-20.4,11.2c-12.4,2.1-27-15-35-6.3L745.3,1502.2z"/>
<path class="st8" d="M799.4,1354c-5.2,10.9-0.6,24,10.4,29.2c10.9,5.2,24,0.6,29.2-10.4c5.2-10.9,0.6-24-10.4-29.2
	C817.7,1338.4,804.6,1343,799.4,1354z"/>
<path class="st6" d="M774,1449.9c0,0,13,9.7,21.4-8.6c1.3-2.8,1.1-6.2-0.6-8.8c-1.8-2.8-5-4.8-10.5,0.1c-10.1,8.9-14.1,1.8-14.1,1.8
	L774,1449.9z"/>
<path class="st16" d="M849.7,1689.3c3,12.5-0.2,22.8-0.2,22.8l-19.1-17.3l9.1,34.2l7.1,16.6c10.9-16.6,14.7-38,15.5-57.4
	C858.7,1688.6,854.5,1689.1,849.7,1689.3z"/>
<path class="st8" d="M771,1515l46.3,54.7c57.7-57.1,15.6-133.2,15.6-133.2l-98.3,36.1l7.9,45L771,1515z"/>
<path class="st6" d="M777.3,1512.8l-88.2,68.7l29-74.4l14.1-32l6.7-15.1l5.7-13l13.2,12.3l7.8,7.2c0,0-3.7,9.7-1.2,22.4
	c0.1,0.3,0.1,0.6,0.2,1c0,0.1,0,0.2,0.1,0.3c0.1,0.5,0.3,1.1,0.4,1.7c0,0.1,0.1,0.2,0.1,0.4c0.3,1.2,0.7,2.4,1.2,3.7
	c0.3,0.7,0.6,1.4,0.9,2.1c0.1,0.4,0.3,0.7,0.5,1c0.2,0.4,0.3,0.7,0.5,1.1s0.4,0.7,0.5,1.1c0.2,0.4,0.4,0.7,0.6,1.1
	c0.2,0.4,0.4,0.7,0.6,1.1c0.2,0.4,0.4,0.8,0.7,1.2c0.2,0.3,0.4,0.7,0.6,1c0.2,0.4,0.5,0.7,0.7,1.1c1,1.4,2.1,2.8,3.4,4.3
	c0.3,0.4,0.6,0.7,0.9,1.1l0,0C776.8,1512.2,777,1512.5,777.3,1512.8z"/>
<path class="st16" d="M776.5,1511.9L776.5,1511.9c-21.3-8.7-20.7-32.8-20.7-32.8c-9.6,2.8-17.9-0.1-23.5-3.9l6.7-15.1l0,0l18.9-0.7
	l7.8,7.2c0,0-3.7,9.7-1.2,22.4c0.1,0.3,0.1,0.6,0.2,1c0,0.1,0,0.2,0.1,0.3c0.1,0.5,0.3,1.1,0.4,1.7c0,0.1,0.1,0.2,0.1,0.4
	c0.4,1.2,0.7,2.4,1.2,3.7c0.3,0.7,0.6,1.4,0.9,2.1c0.2,0.3,0.3,0.7,0.5,1c0.2,0.4,0.3,0.7,0.5,1.1s0.4,0.7,0.5,1.1
	c0.2,0.4,0.4,0.7,0.6,1.1c0.2,0.4,0.4,0.7,0.6,1.1c0.2,0.4,0.4,0.8,0.7,1.2c0.2,0.3,0.4,0.7,0.6,1c0.2,0.4,0.5,0.7,0.7,1.1
	c1,1.4,2.1,2.8,3.4,4.3C775.9,1511.2,776.2,1511.6,776.5,1511.9z"/>
<path class="st6" d="M745.5,1363.9c0,0-40.6,47.6-32.1,87.4c2.3,10.7,10.6,19.1,21.2,21.4c8.4,1.8,19.5,1.8,30.6-5.2l12.6-26.5
	C777.9,1440.9,737,1413.3,745.5,1363.9z"/>
<g>
	<path class="st17" d="M780.1,1411.8c1.3-3.6-0.6-7.6-4.2-8.9l-21.6-7.9l-10.8,30.1l21.6,7.9c3.6,1.3,7.6-0.6,8.9-4.2L780.1,1411.8z
		"/>
	<path class="st18" d="M712.9,1380.3c-3.6-1.3-7.6,0.6-8.9,4.2l-6.1,17c-1.3,3.6,0.6,7.6,4.2,8.9l45.6,16.4c3.6,1.3,7.6-0.6,8.9-4.2
		l6.1-17c1.3-3.6-0.6-7.6-4.2-8.9L712.9,1380.3z"/>
	<path class="st2" d="M752,1411.3c-1.2,3.3-4.8,5-8.1,3.8l-33.2-11.9c-3.3-1.2-5-4.8-3.8-8.1c1.2-3.3,4.8-5,8.1-3.8l33.2,11.9
		C751.5,1404.3,753.2,1408,752,1411.3z"/>
</g>
<path class="st9" d="M868.6,1629.5c-0.1-45.2-24.7-86.8-64.3-108.7c-7.3-4-18.5-8.5-27.1-8l-10,7.8c-0.8,2.4-0.8,5.1,0.3,7.3
	c25.8,52.6,8,120.3,8,120.3c35.8,57.5,93.2,36.8,93.2,36.8L868.6,1629.5z"/>
<g>
	<path class="st2" d="M727.8,1581.5c0.2-2.1-0.5-4.1-1.9-5.7c-1.4-1.5-3.4-2.4-5.4-2.4h-4.6v-3.7h-51.2v22.7
		c0,14.1,11.5,25.6,25.6,25.6c12.5,0,22.9-9,25.1-20.8C724.5,1595.1,727.2,1587.6,727.8,1581.5z M715.8,1592.6c0-0.1,0-0.2,0-0.2
		v-14.7h4.6c0.9,0,1.7,0.4,2.3,1s0.9,1.5,0.8,2.4c-0.4,3.6-1.4,6.4-3.1,8.5C719.3,1590.9,717.7,1592,715.8,1592.6z"/>
	<path class="st2" d="M683.2,1545c-2.2-3.3-1.3-7.8,2-10c3.2-2.1,7.3-1.4,9.6,1.6c0.6-0.3,1.2-0.6,1.8-0.9c-2.1-3.8-2.4-8.1-1-12
		c-6.5-1.1-12.6-4.8-16.6-10.8c-7.6-11.5-4.5-27,7-34.6s27-4.5,34.6,7c6.7,10.1,5.1,23.3-3.2,31.5c1.4,1,2.7,2.3,3.7,3.8
		c4.4,6.7,2.6,15.6-4.1,20.1c-1.9,1.3-4,2-6.1,2.3c1.3,4.4-0.2,9.3-4,12.1c1.4,2.7,0.6,6-1.9,7.7c-2.7,1.8-6.4,1.1-8.2-1.7
		c-0.9-1.4-1.2-3.1-0.8-4.6c-2-0.8-3.7-2.2-5-4.1c-0.9-1.3-1.4-2.7-1.7-4.1C687.1,1548.3,684.7,1547.2,683.2,1545z"/>
</g>
<path class="st19" d="M868.6,1629.5c-0.1-45.2-24.7-86.8-64.3-108.7c-7.6-4.2-19.4-8.9-28-8c-1,6.2-5.4,42.6,29.4,65.8
	c2.3,1.5,4.8,2.7,7.4,3.5c7.5,2.3,27.4,11.9,25.8,48.3c-1.4,31.5-13.3,41.4-8.1,57.1c21.1,3.5,37.9-2.5,37.9-2.5L868.6,1629.5z"/>
<path class="st1" d="M384.3,1733.9h232.9l19.2-35.4c10.8-19.8,31.5-32.2,54.1-32.2h63.9l34.5,190.1l-146.9,7.7l-212.7-57.8
	L384.3,1733.9z"/>
<path class="st9" d="M617.1,1733.9c0,0-185.6,50.6-225.2,0H617.1z"/>
<g>
	<path class="st15" d="M346.6,1692.9c-7.8,10.6-18.1,21.6-30,32.7c8.1,51.3,19.9,133.3,19.3,173.5c-0.3,22.4-1.7,45.9-2.7,60
		c-0.6,8.6-3.1,16.8-7.5,24.2l-8.6,14.5l0.1,10.4l9.9-4.2l23.3-33.5l8-70.9c4.1-26.8,5.3-32.8,6.9-42.1c0.9-5,2.1-10.1,3.2-15.1
		c14.7-66.5,8.4-113.2,1-139.9C355.2,1696.3,346.6,1692.9,346.6,1692.9z"/>
	<path class="st2" d="M350.5,1970.4c0,0,13.7,8.6,19.4,23.4l-76.4,32.7c-1.3,0.6-2.8,0.2-3.8-0.8s-1.2-2.6-0.5-3.9
		c1.6-3.1,5-6.4,12.3-8c1.8-0.4,3.4-1.4,4.6-2.8l11.2-13.3l4.7,3.3L350.5,1970.4z"/>
</g>
<path class="st16" d="M346.6,1692.9c-6.1,8.3-13.7,16.9-22.5,25.5l28.5-11.8c0,0,19.3,97.9,12.7,150.8c0.9-5,2-10.2,3.2-15.1
	c14.7-66.5,8.4-113.2,1-139.9C355.2,1696.3,346.6,1692.9,346.6,1692.9z"/>
<path class="st6" d="M717.4,1581.3h30.4c2.2,0,4.4,0.8,6.1,2.2l12.9,10.8c2.6,2.1,4.2,5.3,4.4,8.6l1.1,16.1c0.1,0.8,0.4,1.6,0.9,2.2
	c12.3,15,24.4,30.1,36.3,45.5c8.5,11.1,17,22.2,25.1,33.7c10.8,15.3,25.3,27.2,12.4,46c-4.1,6.1-11.2,9.4-18.5,8.8
	s-13.7-5.1-16.8-11.8c-12.1-26.3-32.2-75.2-50.7-114.9l-18.1-10.7c-5.3-3.3-7.9-9.6-6.6-15.6l2.4-11.4l-9.4-2.3
	C729.3,1588.4,715.3,1589.5,717.4,1581.3z"/>
<path class="st19" d="M624.4,1673.5c-9.1,17.1-25.6,24.1-41.2,26.5c-16.8,2.7-34.1-0.1-49.3-7.7c-15.5-7.8-46.5-18.8-88.2-10.9
	c-41.2,7.8-75.6-15.9-93.7-32.5c-1.3-6.8-0.9-13.2,2.3-19c72.4,5.4,157.3,31.3,232.7,55.5c5.2,2.2,10.7,2.5,16.2,1.6
	C611.8,1685.7,618.8,1680.7,624.4,1673.5z"/>
<path class="st14" d="M706.9,1269.6c0,3.5-2.8,6.2-6.2,6.2h-98c-3.5,0-6.2-2.8-6.2-6.2v-111.2c0-3.5,2.8-6.2,6.2-6.2h98
	c3.5,0,6.2,2.8,6.2,6.2V1269.6z"/>
<g>
	<rect x="615.1" y="1176.6" class="st20" width="73.1" height="8.8"/>
	<rect x="615.1" y="1197.4" class="st20" width="73.1" height="8.8"/>
	<rect x="615.1" y="1218.2" class="st20" width="73.1" height="8.8"/>
</g>
<rect x="485.8" y="938.4" class="st20" width="121.2" height="9.7"/>
<rect x="485.8" y="959.9" class="st20" width="121.2" height="9.7"/>
<rect x="485.8" y="981.3" class="st20" width="121.2" height="9.7"/>
<path class="st21" d="M945.2,1554c-2,88.9-25,222-110.2,285.1c-25.9,23-75.5,54.4-139.7,65.8l-25.6,107.3H665v-89.5
	c0-4.7,0.3-9.4,0.8-14.1l0,0c-3,0.2-6.1,0.4-9.2,0.5c-1.6,0.1-3.1,0.1-4.7,0.1c-1.6,0-3.1,0.1-4.7,0.1c11.4-5.4,20.3-15.1,24.5-27
	c3-8.6,7.2-16.6,12.5-23.6c8.2-10.8,19.1-19.3,33.3-23.8c29.1-9.2,60,0.8,86.5-19.1c62.4-46.8,110.6-120.4,85.7-249.5
	c-16-83.1-6.1-145.1,10.6-188.9c3.4-8.9,11.8-14.8,21.3-14.9s18.1,5.5,21.7,14.2c3.6,8.6,5.6,17.9,5.9,27.5
	C950.9,1460.3,949.3,1510,945.2,1554z"/>
<g>
	<path class="st22" d="M1053.8,1567.3l-41.4,256.2L994,2065.6c-0.5,6.1-3.2,11.7-7.8,15.8c-8.3,7.4-20,12.4-20,12.4l-4.9,12h13.4
		c0,0,53.2,6.6,43.1-27c-2.9-9.8-0.6-17.8-1.4-21.3c21.6-74.5,55-168,50.4-233.9l89.7-255.4L1053.8,1567.3z"/>
	<path class="st2" d="M1018,2078.7c0,0,11.5,16.5,10.7,36.3H927.1c-2.2,0-4.1-1.5-4.7-3.6c-0.6-2.1,0.4-4.4,2.3-5.5
		c3.4-1.9,8.4-2.9,15.7-1.6c2.2,0.4,4.6,0.1,6.6-0.9l19.3-9.7l3.8,6.1L1018,2078.7z"/>
</g>
<path class="st22" d="M1058,1571.5l56,229.4l82.4,253.1c1.9,5.7,1.5,11.9-1.1,17.3c-4.7,10.1-13.7,19.3-13.7,19.3l0.1,13l12.4-5.2
	c0,0,51.6-14.5,29.3-41.6c-6.5-7.9-7.5-16.1-9.5-19.1c-9.1-77-14.5-176.1-44.3-235.1l-16.5-270.2L1058,1571.5z"/>
<path class="st1" d="M1034.1,1512.6c0,0-17.4-19.5-19.8-49.9c-0.7-8.3-0.2-17.4,2.1-27.1h13.3c1.1,6.4,0.4,15,0,20.5
	C1027.1,1494.8,1034.1,1512.6,1034.1,1512.6z"/>
<path class="st22" d="M1064.5,1451.7l-18.1,4.6l-41.8,10.7c-0.8-9.6-0.2-20.1,2.4-31.3h55.1L1064.5,1451.7z"/>
<path class="st2" d="M1181.2,2006.2c-26.8-1.3-53.9,4.4-76.6,19.1c-5.5,3.6-21.1,10.6-40.4,17.5c-51.8,18.5-130.8,36.5-117.9-13.5
	c18.7-71.7,103-498.9,109-533.3c6.7-38,3.2-54.5-9.3-90.4c-9.9-28.7-24.2-52.7-14.9-84.2c13.8-46.4,62.5-66.8,99.1-65.1
	c53.2,2.6,83,19.9,60.2,104.3c-2.7,10-6.1,21.3-9.5,33.1c-6.7,23.5-13.3,48.9-14,70.4c-0.5,14.3-4.7,38.5,4.5,60.9
	c20.4,49.8,38.5,103.2,39.1,157.5l0.3,0.1c-3.1,65.2,25.6,240.5,37.9,311.9C1255.2,2031.1,1196.5,2006.9,1181.2,2006.2z"/>
<path class="st22" d="M1160.2,1194.7c-1.3,3-3.5,5.6-6.2,7.4l0,0c-0.2,0.1-0.4,0.3-0.5,0.4c-4.1,2.6-14.8,10.6-13.8,24l3.6,24.1
	l1.1,7.4c-43.7,15.9-75.1,80.6-75.1,80.6c-3.5-45.5,27.5-80.6,27.5-80.6c14.3-44-2.4-57.7-2.4-57.7c-15.9,4-20.2-12-21.1-17.3
	c-0.3-1.6-0.1-3.2,0.6-4.6c1-2.3,3.3-4.6,8-1.9c1.5,0.9,3.3,1.2,5,0.9c5.8-0.8,17.4-4.2,17.4-17.9c0-2.3-0.4-4.5-1.3-6.6
	c-3.2-7.9-12.7-34.5,4.5-33.5c0,0,9.3-0.5,22.2,11.3c4.2,3.8,11.2,15.1,16,22.1l11.7,7.5c0.6,0.3,1.1,0.9,1.3,1.7
	c0.1,0.3,0.1,0.7,0.1,1c-0.1,0.4-0.2,0.8-0.4,1.1l-2.9,3.8C1160,1174.9,1165.3,1183.2,1160.2,1194.7z"/>
<g>
	<path class="st23" d="M1063.2,1410.2c0,0,42.8,1.9,61.1-15.1c-26.4,5.6-43.3,4-72.8,4c0,0,3.4,10.4,7.1,20c0,0,3.9,15.3,4.8,14.1
		L1063.2,1410.2z"/>
</g>
<path class="st2" d="M1091.1,1232c-0.4,0-0.7-0.2-1-0.5c-0.2-0.3-4.5-6.6-0.1-16.6c3.8-8.8-1-15.4-1.1-15.5
	c-0.4-0.5-0.3-1.3,0.2-1.7c0.5-0.4,1.3-0.3,1.7,0.2c0.2,0.3,5.7,7.8,1.3,17.8c-3.8,8.7-0.3,14.1-0.1,14.3c0.4,0.5,0.2,1.3-0.3,1.7
	C1091.6,1231.9,1091.3,1232,1091.1,1232z"/>
<path class="st2" d="M1095.4,1232.3c0,2.7-2.2,4.9-4.9,4.9s-4.9-2.2-4.9-4.9c0-2.7,2.2-4.9,4.9-4.9S1095.4,1229.6,1095.4,1232.3z"/>
<g>
	<path class="st2" d="M1153.7,1145.9c2,4.2,1.6,8.6-1,9.8l-24.9,12.2c-2.6,1.3-6.4-1.1-8.4-5.2l-5.4-11c-2-4.2-1.6-8.6,1-9.8
		l24.9-12.2c2.6-1.3,6.4,1.1,8.4,5.2L1153.7,1145.9z"/>
	<path class="st24" d="M1127.8,1167.9c-2.6,1.3-6.4-1.1-8.4-5.2l-5.4-11c-1.8-3.7-1.6-7.5,0.2-9.2l-4.4,2.1c-2.6,1.3-3.1,5.7-1,9.8
		l5.4,11c2,4.2,5.8,6.5,8.4,5.2L1127.8,1167.9z"/>
</g>
<g>
	<path class="st25" d="M1788.3,764.6c-22.7,0-41-17.8-41.8-40.5c-0.7-23,17.4-42.4,40.5-43.1c23.4-0.8,42.4,17.3,43.1,40.5
		c0.7,23-17.4,42.4-40.5,43.1C1789.2,764.6,1788.8,764.6,1788.3,764.6z M1788.4,684.9c-0.4,0-0.8,0-1.2,0
		c-20.9,0.6-37.3,18.2-36.7,39c0.7,21,17.8,37.3,39,36.7c20.9-0.6,37.3-18.2,36.7-39C1825.5,701,1808.9,684.9,1788.4,684.9z"/>
</g>
<path class="st2" d="M2015.8,1091.2c-150.4-6.4-268-123.2-262.2-260.4s132.9-243.7,283.3-237.3c15.2,0.6,30.4,2.4,45.2,5.3l-0.9,3.8
	c-14.6-2.9-29.6-4.6-44.6-5.3c-148.1-6.3-273.2,98.5-278.9,233.6s110.1,250.1,258.2,256.4c14.9,0.6,30,0.1,44.8-1.5l0.5,3.8
	C2046.3,1091.4,2031,1091.9,2015.8,1091.2z"/>
<g>
	<polygon class="st25" points="1676.8,795.1 1676.8,1016.6 1737.8,1039.8 1737.8,830.3 	"/>
	<g>
		<g>
			<g class="st26">
				<g>
					<path class="st27" d="M1721,1146.4c-81.6-47.1-147.9-161.8-147.6-255.7c0.3-93.8,66.9-131.8,148.6-84.7
						c81.7,47.2,147.9,161.8,147.6,255.7C1869.3,1155.6,1802.7,1193.5,1721,1146.4z"/>
				</g>
			</g>
		</g>
		<g>
			<g class="st26">
				<g>
					<path class="st2" d="M1709.9,811.4c-82.1-47.4-148.8-9.3-149.1,85c-0.3,94.3,66,209.2,148.1,256.6s148.8,9.3,149.1-85
						C1858.3,973.7,1792,858.8,1709.9,811.4z"/>
				</g>
			</g>
		</g>
		<g>
			<g class="st26">
				<g>
					<path class="st28" d="M1709.8,856.9c-62.4-36-113.1-7.1-113.3,64.6c-0.2,71.7,50.2,159.1,112.6,195.1s113.1,7.1,113.3-64.6
						C1822.6,980.3,1772.2,893,1709.8,856.9z"/>
				</g>
			</g>
		</g>
		<g>
			<g class="st26">
				<g>
					<path class="st2" d="M1709.7,897.9c-42.7-24.7-77.4-4.9-77.6,44.2c-0.1,49.1,34.4,108.9,77.1,133.5
						c42.7,24.7,77.5,4.9,77.6-44.2C1786.9,982.3,1752.4,922.5,1709.7,897.9z"/>
				</g>
			</g>
		</g>
		<g>
			<g class="st26">
				<g>
					<path class="st28" d="M1709.6,938.8c-23-13.3-41.8-2.6-41.8,23.8c-0.1,26.5,18.5,58.7,41.6,72c23,13.3,41.8,2.6,41.8-23.8
						S1732.6,952.1,1709.6,938.8z"/>
				</g>
			</g>
		</g>
	</g>
</g>
<g>
	<g>
		<polygon class="st2" points="1398.5,866.2 1335.7,902.5 1398.5,938.7 1461.3,902.5 		"/>
		<polygon class="st29" points="1335.7,902.5 1335.7,1028.2 1398.5,1064.4 1398.5,938.7 		"/>
		<polygon class="st25" points="1398.5,938.7 1398.5,1064.4 1461.3,1028.2 1461.3,902.5 		"/>
	</g>
	<g>
		<polygon class="st2" points="1505.7,757.6 1442.9,793.8 1505.7,830 1568.5,793.8 		"/>
		<polygon class="st29" points="1442.9,793.8 1442.9,1088.8 1505.7,1125.1 1505.7,830 		"/>
		<polygon class="st25" points="1505.7,830 1505.7,1125.1 1568.5,1088.8 1568.5,793.8 		"/>
	</g>
	<g>
		<polygon class="st2" points="1613.7,916.7 1550.9,952.9 1613.7,989.1 1676.5,952.9 		"/>
		<polygon class="st29" points="1550.9,952.9 1550.9,1151.1 1613.7,1187.4 1613.7,989.1 		"/>
		<polygon class="st25" points="1613.7,989.1 1613.7,1187.4 1676.5,1151.1 1676.5,952.9 		"/>
	</g>
</g>
<g>
	<polygon class="st30" points="1724.1,573.9 1724.1,623.9 1870.5,526 	"/>
	
		<linearGradient id="SVGID_1_" gradientUnits="userSpaceOnUse" x1="12439.748" y1="1768.6453" x2="12262.918" y2="1684.7643" gradientTransform="matrix(1 0 0 -1 -10530.9775 2268)">
		<stop  offset="0" style="stop-color:#FFE2E8"/>
		<stop  offset="1" style="stop-color:#FFFFFF"/>
	</linearGradient>
	<polygon class="st31" points="1683.8,542.8 1724.1,573.9 1870.5,526 1737.4,588.2 1779.6,623.9 1886.9,519.8 	"/>
	<polygon class="st32" points="1737.4,588.2 1724.1,623.9 1755.5,603.4 	"/>
</g>
<g>
	<g class="st26">
		<g>
			<polygon class="st2" points="1210,1054 1153.5,1056.3 1164.8,1062.8 1129.1,1083.5 1159.3,1101 1195,1080.3 1206.2,1086.8 			"/>
		</g>
	</g>
</g>
<g>
	<g class="st26">
		<g>
			<polygon class="st2" points="1657.5,674 1657.6,689.2 1615.4,713.5 1615.5,754.3 1657.7,730 1657.7,745.2 1693.2,689 			"/>
		</g>
	</g>
</g>
<g>
	
		<ellipse transform="matrix(3.053406e-03 -1 1 3.053406e-03 476.7768 1866.0017)" class="st25" cx="1174.2" cy="693.9" rx="53.7" ry="53.7"/>
	<path class="st2" d="M1217.1,753.8c-14.1,0-25.6-11.5-25.6-25.6s11.5-25.6,25.6-25.6s25.6,11.5,25.6,25.6
		S1231.2,753.8,1217.1,753.8z M1217.1,706.4c-12,0-21.7,9.7-21.7,21.7s9.7,21.7,21.7,21.7s21.7-9.7,21.7-21.7
		C1238.8,716.2,1229.1,706.4,1217.1,706.4z"/>
</g>
<path class="st2" d="M1715.8,1240.7c-0.5-0.1-0.9-0.2-1.4-0.2c-41.1-6.4-79.3,21.3-108.3,47c-97.7,86.6-180.1,30.6-229.2-5.5
	s-90.6-48-137.7-13.5c-6.2,4.5-12.2,7.8-18.2,10.1c0.1-26.3,21.4-47.7,47.8-47.7c6.6,0,12.8,1.3,18.5,3.7
	c2.5-18,17.9-31.9,36.6-31.9c20.4,0,37,16.6,37,37c0,2.6-0.3,5.2-0.8,7.7c2.7-0.8,5.5-1.3,8.5-1.3c11.1,0,20.7,6.5,25.2,15.8
	c10.3-19.6,30.8-32.9,54.4-32.9c26.9,0,49.7,17.3,58,41.3c9.4-21.7,31-36.9,56.2-36.9c5.6,0,11,0.8,16.1,2.2
	c3.7-18.7,20.2-32.8,40-32.8c15,0,28.2,8.1,35.2,20.3C1672,1223.3,1692.8,1228.3,1715.8,1240.7z"/>
<path class="st2" d="M1223.4,2056.7l-35.9,38l-5.9-4.1l-6.4,7.5l-10.6,5.4c-2,1-4.4,1.3-6.6,0.9c-7.2-1.4-12.2-0.3-15.7,1.5
	c-1.9,1.1-2.9,3.3-2.3,5.5c0.6,2.1,2.5,3.6,4.7,3.6h6.4h27.4l62.4-26.3l6.4-2.7C1240.3,2067.5,1223.4,2056.7,1223.4,2056.7z"/>
<path class="st23" d="M1181.2,2006.2c-26.8-1.3-53.9,4.4-76.6,19.1c-5.5,3.6-21.1,10.6-40.4,17.5c22.3-86.8,41.5-64.3,91.6-137.6
	c27.9-40.9,27.4-100.6,27.2-148c-0.2-56.1-6.1-112.9-16.1-168.2c-4.1-22.7-13.5-44.2-17.5-66.9c-4.3-24-1.5-48.3,1.7-72.2
	c5.7-43.2-24.1-85,10-146.7l20,90.6c-6.7,23.5-13.3,48.9-14,70.4c-0.5,14.3-4.7,38.5,4.5,60.9c20.4,49.8,38.5,103.2,39.1,157.5
	l0.3,0.1c-3.1,65.2,25.6,240.5,37.9,311.9C1255.2,2031.1,1196.5,2006.9,1181.2,2006.2z"/>
<path class="st22" d="M1154,1202.2c-0.2,0.1-0.4,0.3-0.5,0.4c-4.1,2.6-14.8,10.6-13.8,24l3.6,24.1l-11.7-25.1
	c-7.6-14-21.4-23.7-22.3-24.3C1125.5,1208.6,1150.1,1203.1,1154,1202.2z"/>
<g>
	<path class="st33" d="M1693.8,632.5c-1.4,0-2.8-0.6-3.9-1.6c-1-1-1.6-2.4-1.6-3.9c0-1.4,0.6-2.8,1.6-3.8c2-2,5.7-2,7.7,0
		c1,1,1.6,2.4,1.6,3.8c0,1.4-0.6,2.8-1.6,3.9C1696.6,632,1695.2,632.5,1693.8,632.5z"/>
	<path class="st33" d="M1251.8,1030.4c-1.5-2.6-0.5-6,2.1-7.4l0,0c2.6-1.5,5.9-0.5,7.4,2.1l0,0c1.5,2.6,0.5,6-2.1,7.4l0,0
		c-0.8,0.5-1.7,0.7-2.6,0.7l0,0C1254.7,1033.2,1252.8,1032.2,1251.8,1030.4z M1276,1017c-1.5-2.6-0.5-6,2.1-7.4l0,0
		c2.6-1.5,5.9-0.5,7.4,2.1l0,0c1.5,2.6,0.5,6-2.1,7.4l0,0c-0.8,0.5-1.7,0.7-2.6,0.7l0,0C1278.8,1019.7,1277,1018.7,1276,1017z
		 M1300.1,1003.5c-1.5-2.6-0.5-6,2.1-7.4l0,0c2.6-1.5,5.9-0.5,7.4,2.1l0,0c1.5,2.6,0.5,5.9-2.1,7.4l0,0c-0.8,0.5-1.7,0.7-2.6,0.7
		l0,0C1303,1006.3,1301.1,1005.3,1300.1,1003.5z M1324.3,990c-1.5-2.6-0.5-5.9,2.1-7.4l0,0c2.6-1.5,6-0.5,7.4,2.1l0,0
		c1.5,2.6,0.5,5.9-2.1,7.4l0,0c-0.8,0.5-1.8,0.7-2.7,0.7l0,0C1327.1,992.8,1325.3,991.8,1324.3,990z M1348.4,976.6
		c-1.5-2.6-0.5-5.9,2.1-7.4l0,0c2.6-1.5,6-0.5,7.4,2.1l0,0c1.5,2.6,0.5,5.9-2.1,7.4l0,0c-0.8,0.5-1.8,0.7-2.7,0.7l0,0
		C1351.3,979.4,1349.4,978.4,1348.4,976.6z M1372.6,963.2c-1.6-2.5-0.9-5.9,1.7-7.5l0,0c2.5-1.6,5.9-0.9,7.5,1.7l0,0
		c1.6,2.5,0.9,5.9-1.7,7.5l0,0l0,0l0,0c-0.9,0.6-1.9,0.8-2.9,0.8l0,0C1375.4,965.8,1373.7,964.9,1372.6,963.2z M1394.5,946.5
		c-2.3-2-2.5-5.4-0.6-7.7l0,0c2-2.3,5.4-2.5,7.7-0.6l0,0c2.3,2,2.5,5.4,0.5,7.7l0,0c-1.1,1.2-2.6,1.9-4.1,1.9l0,0
		C1396.8,947.8,1395.5,947.4,1394.5,946.5z M1410.7,924.1c-2.7-1.2-4-4.5-2.7-7.2l0,0c1.2-2.7,4.5-4,7.2-2.7l0,0
		c2.7,1.2,4,4.5,2.7,7.2l0,0c-0.9,2-2.9,3.2-5,3.2l0,0C1412.2,924.6,1411.4,924.4,1410.7,924.1z M1419.7,898.1
		c-3-0.4-5.1-3.1-4.7-6.1l0,0c0.4-3,3.1-5.1,6.1-4.7l0,0c3,0.4,5.1,3.1,4.7,6.1l0,0l0,0l0,0c-0.4,2.7-2.7,4.7-5.4,4.7l0,0
		C1420.2,898.1,1420,898.1,1419.7,898.1z M1415.8,865.1c0-3,2.4-5.5,5.5-5.5l0,0c3,0,5.4,2.4,5.4,5.5l0,0c0,3-2.4,5.4-5.4,5.4l0,0
		C1418.3,870.5,1415.8,868.1,1415.8,865.1z M1415.8,837.4c0-3,2.4-5.4,5.5-5.4l0,0c3,0,5.4,2.4,5.4,5.4l0,0c0,3-2.4,5.5-5.4,5.5l0,0
		C1418.3,842.9,1415.8,840.4,1415.8,837.4z M1423.3,815.3c-2.9-0.8-4.6-3.8-3.8-6.7l0,0c0.8-2.9,3.8-4.6,6.7-3.8l0,0
		c2.9,0.8,4.6,3.8,3.8,6.7l0,0c-0.7,2.4-2.9,4-5.2,4l0,0C1424.3,815.5,1423.8,815.5,1423.3,815.3z M1433,789.5
		c-2.5-1.6-3.3-5-1.7-7.5l0,0c1.6-2.6,5-3.3,7.5-1.7l0,0c2.6,1.6,3.3,5,1.7,7.5l0,0c-1,1.6-2.8,2.5-4.6,2.5l0,0
		C1434.9,790.3,1433.9,790.1,1433,789.5z M1449.7,767.5c-2-2.3-1.7-5.7,0.5-7.7l0,0c2.3-2,5.7-1.7,7.7,0.5l0,0
		c2,2.3,1.7,5.7-0.5,7.7l0,0c-1,0.9-2.3,1.3-3.6,1.3l0,0C1452.3,769.4,1450.7,768.8,1449.7,767.5z M1472,751.4
		c-1.5-2.6-0.5-6,2.1-7.4l0,0c2.6-1.5,5.9-0.5,7.4,2.1l0,0c1.5,2.6,0.5,6-2.1,7.4l0,0c-0.8,0.5-1.7,0.7-2.7,0.7l0,0
		C1474.9,754.2,1473,753.2,1472,751.4z M1496.1,737.9c-1.5-2.6-0.5-5.9,2.1-7.4l0,0c2.6-1.5,5.9-0.5,7.4,2.1l0,0
		c1.5,2.6,0.5,6-2.1,7.4l0,0c-0.8,0.5-1.8,0.7-2.7,0.7l0,0C1499,740.7,1497.1,739.7,1496.1,737.9z M1520.2,724.4
		c-1.5-2.6-0.5-5.9,2.1-7.4l0,0c2.6-1.5,5.9-0.5,7.4,2.1l0,0c1.5,2.6,0.5,5.9-2.1,7.4l0,0c-0.9,0.5-1.8,0.7-2.7,0.7l0,0
		C1523.1,727.1,1521.2,726.1,1520.2,724.4z M1544.3,710.8c-1.5-2.6-0.5-5.9,2.1-7.4l0,0c2.6-1.5,5.9-0.5,7.4,2.1l0,0
		c1.5,2.6,0.5,5.9-2.1,7.4l0,0c-0.8,0.5-1.8,0.7-2.7,0.7l0,0C1547.2,713.6,1545.3,712.6,1544.3,710.8z M1568.5,697.3
		c-1.5-2.6-0.5-5.9,2.1-7.4l0,0c2.6-1.5,6-0.5,7.4,2.1l0,0c1.5,2.6,0.5,5.9-2.1,7.4l0,0c-0.8,0.5-1.8,0.7-2.7,0.7l0,0
		C1571.3,700.1,1569.5,699.1,1568.5,697.3z M1592.6,683.8c-1.5-2.6-0.5-6,2.1-7.4l0,0c2.6-1.5,5.9-0.5,7.4,2.1l0,0
		c1.5,2.6,0.5,6-2.1,7.4l0,0c-0.9,0.5-1.8,0.7-2.7,0.7l0,0C1595.4,686.6,1593.5,685.6,1592.6,683.8z M1616.7,670.3
		c-1.5-2.6-0.5-5.9,2.1-7.4l0,0c2.6-1.5,5.9-0.5,7.4,2.1l0,0c1.5,2.6,0.5,6-2.1,7.4l0,0c-0.8,0.5-1.8,0.7-2.7,0.7l0,0
		C1619.5,673.1,1617.7,672.1,1616.7,670.3z M1640.8,656.8c-1.5-2.6-0.5-5.9,2.1-7.4l0,0c2.6-1.5,6-0.5,7.4,2.1l0,0
		c1.5,2.6,0.5,5.9-2.1,7.4l0,0c-0.8,0.5-1.8,0.7-2.7,0.7l0,0C1643.6,659.6,1641.8,658.6,1640.8,656.8z M1664.9,643.3
		c-1.5-2.6-0.5-5.9,2.1-7.4l0,0c2.6-1.5,5.9-0.5,7.4,2.1l0,0c1.5,2.6,0.5,5.9-2.1,7.4l0,0c-0.8,0.5-1.7,0.7-2.7,0.7l0,0
		C1667.7,646.1,1665.9,645,1664.9,643.3z"/>
	<path class="st33" d="M1232.4,1046.7c-1.4,0-2.8-0.6-3.9-1.6c-1-1-1.6-2.4-1.6-3.8s0.6-2.8,1.6-3.9c2-2,5.7-2,7.7,0
		c1,1,1.6,2.4,1.6,3.9c0,1.4-0.6,2.8-1.6,3.8S1233.8,1046.7,1232.4,1046.7z"/>
</g>
<path class="st1" d="M1355.7,1372.7c0,0,18.9,95.8,4,133.2l-35.9-45.5l11.9-53.3L1355.7,1372.7z"/>
<path class="st22" d="M1374.2,1379.6c4.3-2.5,8.8-4.4,11.1-5.1c4.3-1.3,13-8.1,24.9-19c4.1-3.8,6.7-7.2,8.2-10.4
	c3.1-4.3,2.6-7.6,2-9.3c1.5-2.6,0.4-4.2-0.6-5c2-3.5-0.7-5.1-1.5-5.6c-0.3-5.8-4.5-3.1-4.5-3.1s-12.7,15.7-19.2,18.4
	c-3.9,1.6-13.3,5.8-18.3,6c-0.2,0-0.5-0.1-0.6-0.3c-0.1-0.2-0.2-0.4-0.1-0.6c1.6-5.5,2.6-9.1,5.1-14.4c0.5-1,0.7-2,0.8-3.1
	c0.1-1.3,0-2.9-0.8-4.1c0,0-2.9-3.4-4.9,0.2l-7.7,14.7l-3.9,4.7c-1.8,2.2-2.8,5.1-2.8,8l1.2,12.5c0,1.6-0.6,3.2-1.8,4.3l-2.8,2.8
	l-7.9,7.5l-21.3,62.4L1374.2,1379.6z"/>
<path class="st34" d="M1359.7,1505.9c0,0-121.2-4.5-152.7-46.5l-31.2-44.9c0,0-9.3-12.1-15.1-31.2c-6-19.9-9.4-49.2,0-87.3
	c1-4,2.5-7.9,4.6-11.5c3.5-6,8.3-11.4,14.3-15.7c0,0,0.5,0.3,1.3,1c8,6,49.8,41.4,69.7,128.1c9.4,41.2,37,41.1,62.3,19.3
	c2-1.8,4-3.6,5.9-5.6c15.5-15.7,29.4-33.6,36.8-38.9C1355,1374.2,1323.7,1448.9,1359.7,1505.9z"/>
<path class="st35" d="M1312.9,1417.2c-22.9,50.9-63.2,32.3-74.4,9.4c-11.8-24.4,0-40.7-31.5-70.9c-31.4-30.1-29.3-68.1-26.1-85.8
	c8,6,49.8,41.4,69.7,128.1C1260.1,1439,1287.7,1439,1312.9,1417.2z"/>
<g class="st36">
	<path class="st3" d="M825.6,1121.2H684.3c-7.6,0-13.8-6.2-13.8-13.8V937.2c0-7.6,6.2-13.8,13.8-13.8h141.3
		c7.6,0,13.8,6.2,13.8,13.8v170.2C839.5,1115,833.3,1121.2,825.6,1121.2z M684.3,928.4c-4.9,0-8.8,4-8.8,8.8v170.2
		c0,4.9,3.9,8.8,8.8,8.8h141.3c4.9,0,8.8-4,8.8-8.8V937.2c0-4.9-3.9-8.8-8.8-8.8H684.3z"/>
	<g>
		<g>
			<rect x="701" y="1045.2" class="st3" width="107.9" height="5"/>
			<rect x="701" y="1064.7" class="st3" width="107.9" height="5"/>
			<rect x="701" y="1084.2" class="st3" width="107.9" height="5"/>
		</g>
		<g>
			<ellipse class="st3" cx="755" cy="975.1" rx="19.2" ry="19.2"/>
			<path class="st3" d="M771.4,998.5c-4.7,3.3-10.3,5.2-16.4,5.2c-6.1,0-11.8-1.9-16.4-5.2c-5.4,4.6-8.9,11.6-8.9,19.3v9.9h50.7
				v-9.9C780.3,1010.1,776.9,1003.2,771.4,998.5z"/>
		</g>
	</g>
</g>
<path class="st25" d="M1780.1,748.2c0.3,10.4-7.9,19.1-18.3,19.4c-10.4,0.3-19.1-7.9-19.4-18.3c-0.3-10.4,7.9-19.1,18.3-19.4
	C1771,729.6,1779.7,737.8,1780.1,748.2z"/>
<g>
	<g class="st26">
		<g>
			<defs>
				<polygon id="SVGID_2_" points="1229.2,615.2 1319.6,562.7 1439.4,631.8 1349,684.4 				"/>
			</defs>
			<clipPath id="SVGID_3_">
				<use xlink:href="#SVGID_2_"  style="overflow:visible;"/>
			</clipPath>
			<g class="st37">
				<path class="st2" d="M1257.2,620.3l70-40.7l9.6,5.5l-70,40.7L1257.2,620.3z M1277.7,632.2l70-40.7l9.6,5.5l-70,40.7
					L1277.7,632.2z M1298.3,644.1l70-40.7l9.6,5.5l-70,40.7L1298.3,644.1z M1439.4,631.8l-119.7-69.1l-90.4,52.5l119.7,69.1
					L1439.4,631.8z"/>
				<polygon class="st3" points="1336.8,585.2 1327.2,579.7 1257.2,620.3 1266.8,625.9 				"/>
				<polygon class="st3" points="1357.3,597 1347.7,591.5 1277.7,632.2 1287.3,637.7 				"/>
				<polygon class="st3" points="1377.8,608.9 1368.3,603.4 1298.3,644.1 1307.8,649.6 				"/>
			</g>
		</g>
	</g>
</g>
<g>
	<g class="st26">
		<g>
			<defs>
				<polygon id="SVGID_4_" points="1445.8,1418.7 1536.2,1366.2 1656,1435.3 1565.6,1487.9 				"/>
			</defs>
			<clipPath id="SVGID_5_">
				<use xlink:href="#SVGID_4_"  style="overflow:visible;"/>
			</clipPath>
			<g class="st38">
				<path class="st2" d="M1473.8,1423.9l70-40.7l9.6,5.5l-70,40.7L1473.8,1423.9z M1494.3,1435.7l70-40.7l9.6,5.5l-70,40.7
					L1494.3,1435.7z M1514.9,1447.6l70-40.7l9.6,5.5l-70,40.7L1514.9,1447.6z M1656,1435.3l-119.7-69.1l-90.4,52.5l119.7,69.1
					L1656,1435.3z"/>
				<polygon class="st3" points="1553.4,1388.7 1543.8,1383.2 1473.8,1423.9 1483.4,1429.4 				"/>
				<polygon class="st3" points="1573.9,1400.6 1564.3,1395 1494.3,1435.7 1503.9,1441.3 				"/>
				<polygon class="st3" points="1594.4,1412.4 1584.9,1406.9 1514.9,1447.6 1524.4,1453.1 				"/>
			</g>
		</g>
	</g>
</g>
<g>
	<g class="st26">
		<g>
			<defs>
				<polygon id="SVGID_6_" points="930.1,579.7 1020.5,527.2 1140.3,596.3 1049.8,648.9 				"/>
			</defs>
			<clipPath id="SVGID_7_">
				<use xlink:href="#SVGID_6_"  style="overflow:visible;"/>
			</clipPath>
			<g class="st39">
				<path class="st2" d="M958.1,584.9l70-40.7l9.6,5.5l-70,40.7L958.1,584.9z M978.6,596.7l70-40.7l9.6,5.5l-70,40.7L978.6,596.7z
					 M999.2,608.6l70-40.7l9.6,5.5l-70,40.7L999.2,608.6z M1140.3,596.3l-119.7-69.1l-90.4,52.5l119.7,69.1L1140.3,596.3z"/>
				<polygon class="st3" points="1037.7,549.7 1028.1,544.2 958.1,584.9 967.7,590.4 				"/>
				<polygon class="st3" points="1058.2,561.6 1048.6,556 978.6,596.7 988.2,602.2 				"/>
				<polygon class="st3" points="1078.7,573.4 1069.2,567.9 999.2,608.6 1008.7,614.1 				"/>
			</g>
		</g>
	</g>
</g>
<g>
	<g class="st26">
		<g>
			<defs>
				<polygon id="SVGID_8_" points="1222.8,1113.6 1303.9,1066.5 1411.2,1128.5 1330.2,1175.6 				"/>
			</defs>
			<clipPath id="SVGID_9_">
				<use xlink:href="#SVGID_8_"  style="overflow:visible;"/>
			</clipPath>
			<g class="st40">
				<path class="st2" d="M1247.9,1118.2l45.5-26.5l8.6,5l-45.5,26.5L1247.9,1118.2z M1266.3,1128.9l62.8-36.5l8.6,5l-62.8,36.5
					L1266.3,1128.9z M1284.7,1139.5l54-31.5l8.6,5l-54,31.5L1284.7,1139.5z M1411.2,1128.5l-107.4-62l-81.1,47.1l107.4,62
					L1411.2,1128.5z"/>
			</g>
		</g>
	</g>
</g>
<polygon class="st2" points="1524.7,1099.7 1542,1090.2 1524.7,1125.5 "/>
<g>
	<g class="st26">
		<g>
			<path d="M1516.8,1090.1l187.6-109c0.9-0.5,2.2-0.5,3.6,0.4l-187.6,109C1519,1089.6,1517.7,1089.5,1516.8,1090.1z"/>
		</g>
		<g>
			<path class="st3" d="M1711.5,993.5l-187.6,109c0.9-0.5,1.5-1.7,1.5-3.3c0-3.3-2.3-7.2-5.1-8.8l187.6-109c2.8,1.6,5.1,5.6,5.1,8.8
				C1713,991.8,1712.5,993,1711.5,993.5z"/>
		</g>
		<g>
			<path class="st2" d="M1520.4,1090.4c2.8,1.6,5.1,5.6,5.1,8.8c0,3.2-2.3,4.5-5.1,2.9c-2.8-1.6-5.1-5.6-5.1-8.8
				S1517.6,1088.8,1520.4,1090.4z"/>
		</g>
	</g>
</g>
<polygon class="st2" points="1524.7,1087.8 1539.9,1079 1524.7,1052.5 "/>
<path class="st41" d="M1094,1112.6c-2.8,4.4-10.3,11.4-29.1,11.9c-27.3,0.7-30.7,16-30.7,16l-0.3-0.3c-3.7,8.6-13,20.6-11,35.7
	c4.1,31.2-10,54.4-21.5,67.5c-10.5,12.1-16.2,27.7-15.8,43.7c0.4,17.8,10.8,42.3,20.9,74.1c-0.6-1.1-1.3-2.2-2-3.3
	c-20.4-34.5-43.5-80-35.4-121.1c5.8-29.6,32.6-50.1,44.1-77.1c1.1-2.6,2.1-5.3,2.9-8.1c0.7-2.5,1.3-5.1,1.7-7.7
	c4.8-31.8,27.8-38.1,43.6-28.6c11,6.6,24.6,0.7,27.3-0.6c0.5-0.2,1.1-0.5,1.6-0.7C1091.6,1113.4,1092.8,1112.9,1094,1112.6z"/>
<path class="st34" d="M1034.1,1512.6c0,0-24-27.8-17.7-77H1005c0,0,17.5-25.2,28.1-65.3c-0.9-2.9-1.7-5.8-2.4-8.7c0,0,0,0,0-0.1
	c-0.2-0.9-0.4-1.8-0.6-2.7c0-0.2-0.1-0.4-0.1-0.5c-0.2-0.7-0.3-1.5-0.4-2.2c0-0.2-0.1-0.5-0.1-0.7c-0.1-0.7-0.2-1.4-0.3-2.1
	c0-0.3-0.1-0.5-0.1-0.8c-0.1-0.7-0.2-1.4-0.3-2.1c0-0.2-0.1-0.5-0.1-0.7c-0.1-0.8-0.1-1.6-0.2-2.3c0-0.2,0-0.4,0-0.5
	c-0.1-1.9-0.2-3.9-0.1-5.9c0-0.3,0-0.5,0-0.8c0-0.7,0-1.4,0.1-2.2c0-0.3,0-0.7,0.1-1c0-0.6,0.1-1.3,0.2-1.9c0-0.4,0.1-0.8,0.1-1.1
	c0.1-0.6,0.2-1.3,0.2-1.9c0.1-0.4,0.1-0.8,0.2-1.2c0.1-0.6,0.2-1.3,0.3-1.9c0.1-0.4,0.1-0.8,0.2-1.2c0.1-0.7,0.3-1.4,0.5-2.1
	c0.1-0.3,0.1-0.7,0.2-1c0.3-1,0.5-2.1,0.9-3.2c0.5-1.8,1.1-3.5,1.7-5.2c0.2-0.5,0.4-1,0.6-1.4c0.5-1.3,1-2.6,1.6-3.8
	c0.2-0.4,0.4-0.8,0.6-1.2c0.8-1.6,1.5-3.2,2.4-4.7c0.1-0.2,0.2-0.3,0.3-0.5c0.8-1.4,1.6-2.7,2.4-4c0.2-0.4,0.5-0.7,0.7-1.1
	c0.8-1.2,1.7-2.4,2.5-3.6c0.2-0.2,0.3-0.4,0.5-0.6c1.1-1.4,2.2-2.8,3.3-4.1c0.1-0.2,0.3-0.3,0.4-0.4c1-1.2,2.1-2.3,3.1-3.4
	c0.2-0.2,0.5-0.5,0.7-0.7c1.2-1.2,2.4-2.4,3.7-3.5c-0.5,0.3-1.1,0.6-1.8,1c-24,13.5-141.4,83.4-146,159.3
	c-2.7,45.8,23.8,75,54.5,85.3C988.4,1537.1,1017.4,1532.3,1034.1,1512.6z"/>
<path class="st35" d="M921.3,1466.4c-1.2-25.4,18-33.1,32.9-48.8c24.3-25.5,28.9-63,51.3-89.9c5.3-6.4,22.2-13.4,30.4-18.4
	c4.3-9.1,10.1-17,16.9-23.7l1.1-1.7c-24,13.5-141.4,83.4-146,159.3c-2.7,45.8,23.8,75,54.5,85.3
	C951.3,1521.7,922.9,1501.1,921.3,1466.4z"/>
<path class="st24" d="M1116.9,1165.5c-0.6,0.7-0.4,0.2-1.6,1.3c-2.5,2.2-6.2,5.2-11.2,8.1c-2.5,1.4-5.4,2.8-8.7,3.8
	c-3.2,1.1-6.9,1.8-10.8,1.9s-8-0.6-11.8-1.9c-1-0.3-1.9-0.7-2.8-1.1s-1.8-0.9-2.7-1.4c-0.9-0.5-1.7-1-2.5-1.6l-2.1-1.4l-2.1-1.4
	l-1-0.7l-1-0.6c-1.3-0.7-2.5-1.5-4-2.2c-2.8-1.4-5.6-2.7-8.4-3.7s-5.6-1.9-8.3-2.6c-2.7-0.7-5.3-1.2-7.7-1.7
	c-4.8-0.8-8.9-1.2-11.7-1.3c-1.4-0.1-2.5-0.1-3.3-0.1c-0.2,0-0.9,0.3-1.9,0.7c1.1-2.6,2.1-5.3,2.9-8.1c0.7,0,1.5-0.1,2.3-0.1
	c3.1-0.1,7.5,0,12.8,0.5c2.6,0.3,5.5,0.7,8.5,1.2c3,0.6,6.2,1.3,9.4,2.2c3.2,1,6.5,2.1,9.8,3.5c1.6,0.6,3.3,1.6,5,2.4l1.3,0.6
	l1.1,0.6l2.2,1.3l2.2,1.3c0.6,0.4,1.2,0.7,1.9,1c0.6,0.3,1.2,0.6,1.9,0.8c0.6,0.2,1.3,0.5,1.9,0.6c2.5,0.7,5.1,0.9,7.5,0.7
	c4.9-0.5,9.5-2.6,13.2-5s6.5-5,8.3-6.9c0.9-0.9,1.6-1.7,2-2.2s3.4-2.7,3.4-2.7l3.6,4.1C1113.4,1158,1117.5,1164.9,1116.9,1165.5z"/>
<path class="st3" d="M532.9,855.6l-35.4-5.4c-1.6-0.3-3.3,0.2-4.6,1.3c-1.3,1.1-2,2.7-2,4.3v67.9c0,1.8,1.4,3.2,3.2,3.2h10.5V910
	c0-3.1,2.5-5.6,5.6-5.6h8.1c3.1,0,5.6,2.5,5.6,5.6v16.9h13.7v-65.7C537.7,858.4,535.7,856.1,532.9,855.6z M508.7,897.1h-4.8
	c-1.3,0-2.4-1.1-2.4-2.4s1.1-2.4,2.4-2.4h4.8c1.3,0,2.4,1.1,2.4,2.4S510,897.1,508.7,897.1z M508.7,887.4h-4.8
	c-1.3,0-2.4-1.1-2.4-2.4s1.1-2.4,2.4-2.4h4.8c1.3,0,2.4,1.1,2.4,2.4S510,887.4,508.7,887.4z M508.7,877.8h-4.8
	c-1.3,0-2.4-1.1-2.4-2.4s1.1-2.4,2.4-2.4h4.8c1.3,0,2.4,1.1,2.4,2.4S510,877.8,508.7,877.8z M508.7,868.1h-4.8
	c-1.3,0-2.4-1.1-2.4-2.4s1.1-2.4,2.4-2.4h4.8c1.3,0,2.4,1.1,2.4,2.4S510,868.1,508.7,868.1z M524.8,897.1H520
	c-1.3,0-2.4-1.1-2.4-2.4s1.1-2.4,2.4-2.4h4.8c1.3,0,2.4,1.1,2.4,2.4S526.1,897.1,524.8,897.1z M524.8,887.4H520
	c-1.3,0-2.4-1.1-2.4-2.4s1.1-2.4,2.4-2.4h4.8c1.3,0,2.4,1.1,2.4,2.4S526.1,887.4,524.8,887.4z M524.8,877.8H520
	c-1.3,0-2.4-1.1-2.4-2.4s1.1-2.4,2.4-2.4h4.8c1.3,0,2.4,1.1,2.4,2.4S526.1,877.8,524.8,877.8z M524.8,868.1H520
	c-1.3,0-2.4-1.1-2.4-2.4s1.1-2.4,2.4-2.4h4.8c1.3,0,2.4,1.1,2.4,2.4S526.1,868.1,524.8,868.1z"/>
<path class="st3" d="M572.1,878.9l-23.8-3.6c-1.1-0.2-2.2,0.1-3.1,0.8c-0.8,0.7-1.3,1.8-1.3,2.9v45.6c0,1.2,1,2.2,2.2,2.2h7v-11.4
	c0-2.1,1.7-3.8,3.8-3.8h5.4c2.1,0,3.8,1.7,3.8,3.8v11.4h9.2v-44.1C575.3,880.7,573.9,879.2,572.1,878.9z M555.8,906.7h-3.2
	c-0.9,0-1.6-0.7-1.6-1.6s0.7-1.6,1.6-1.6h3.2c0.9,0,1.6,0.7,1.6,1.6S556.7,906.7,555.8,906.7z M555.8,900.2h-3.2
	c-0.9,0-1.6-0.7-1.6-1.6s0.7-1.6,1.6-1.6h3.2c0.9,0,1.6,0.7,1.6,1.6S556.7,900.2,555.8,900.2z M555.8,893.7h-3.2
	c-0.9,0-1.6-0.7-1.6-1.6s0.7-1.6,1.6-1.6h3.2c0.9,0,1.6,0.7,1.6,1.6S556.7,893.7,555.8,893.7z M555.8,887.3h-3.2
	c-0.9,0-1.6-0.7-1.6-1.6s0.7-1.6,1.6-1.6h3.2c0.9,0,1.6,0.7,1.6,1.6S556.7,887.3,555.8,887.3z M566.6,906.7h-3.2
	c-0.9,0-1.6-0.7-1.6-1.6s0.7-1.6,1.6-1.6h3.2c0.9,0,1.6,0.7,1.6,1.6S567.5,906.7,566.6,906.7z M566.6,900.2h-3.2
	c-0.9,0-1.6-0.7-1.6-1.6s0.7-1.6,1.6-1.6h3.2c0.9,0,1.6,0.7,1.6,1.6S567.5,900.2,566.6,900.2z M566.6,893.7h-3.2
	c-0.9,0-1.6-0.7-1.6-1.6s0.7-1.6,1.6-1.6h3.2c0.9,0,1.6,0.7,1.6,1.6S567.5,893.7,566.6,893.7z M566.6,887.3h-3.2
	c-0.9,0-1.6-0.7-1.6-1.6s0.7-1.6,1.6-1.6h3.2c0.9,0,1.6,0.7,1.6,1.6S567.5,887.3,566.6,887.3z"/>
<g>
	<g>
		<path class="st3" d="M193.3,1406.7c-1.9,0-3.5-1.6-3.5-3.5v-5.2h-13.9v5.2c0,1.9-1.6,3.5-3.5,3.5s-3.5-1.6-3.5-3.5v-5.2
			c0-3.8,3.1-6.9,6.9-6.9h13.9c3.8,0,6.9,3.1,6.9,6.9v5.2C196.7,1405.1,195.2,1406.7,193.3,1406.7z"/>
		<path class="st3" d="M185.3,1437.5c-0.6,0.2-1.5,0.4-2.5,0.4s-1.8-0.2-2.7-0.5l-39-13v26.5c0,5.3,4.3,9.6,9.6,9.6H215
			c5.3,0,9.6-4.3,9.6-9.6v-26.5L185.3,1437.5z"/>
		<path class="st3" d="M224.5,1411v8l-40.9,13.6c-0.3,0.1-0.6,0.1-0.8,0.1s-0.6,0-0.8-0.1l-40.9-13.6v-8c0-5.3,4.3-9.6,9.6-9.6H215
			C220.3,1401.5,224.5,1405.8,224.5,1411z"/>
	</g>
</g>
<path class="st42" d="M623.8,1332.4c0,14-11.3,25.3-25.3,25.3H200.8c-14,0-25.3-11.3-25.3-25.3v-237.8c0-14,11.3-25.3,25.3-25.3
	h397.6c14,0,25.3,11.3,25.3,25.3L623.8,1332.4L623.8,1332.4z"/>
</svg>
